<svg width="20" height="20" viewBox="0 0 20 20" fill="none" xmlns="http://www.w3.org/2000/svg">
<g clip-path="url(#clip0_2991_33754)">
<path d="M16.4623 13.5128C16.7568 13.4131 17.0626 13.3625 17.3707 13.3625C18.3527 13.3625 19.2452 13.8688 19.7562 14.6715C20.0603 14.657 20.1383 14.4789 19.6496 13.8422C18.8617 12.8155 17.7657 12.6164 16.995 12.6268C16.9466 12.4964 16.8965 12.3601 16.8445 12.2161C16.3722 10.91 15.3113 10.288 14.687 10.0249L14.0852 8.26965C14.0488 8.16396 13.972 8.07882 13.8706 8.0322C13.7691 7.98528 13.6546 7.98222 13.5508 8.02351L12.4248 8.46956C12.5392 8.51796 12.64 8.59491 12.7176 8.69615C12.8225 8.83295 12.874 8.99879 12.8665 9.16907L13.454 8.93626L15.2859 14.279C15.6033 13.9318 16.0045 13.6681 16.4623 13.5128Z" fill="white"/>
<path d="M5.5692 5.4458H0.43381C0.194286 5.4458 0 5.64009 0 5.87981V10.9428C0 11.1825 0.194286 11.3767 0.43381 11.3767H5.5692C5.80892 11.3767 6.00311 11.1825 6.00311 10.9428V5.87981C6.00311 5.64009 5.80892 5.4458 5.5692 5.4458Z" fill="white"/>
<path d="M7.62231 15.4147C7.19265 14.1477 5.81754 13.4688 4.55038 13.8985C3.28332 14.328 2.60466 15.7034 3.03422 16.9702C3.46378 18.2372 4.8389 18.9161 6.10605 18.4866C7.37301 18.0569 8.05187 16.6816 7.62231 15.4147ZM5.6355 17.0987C5.13502 17.2685 4.59167 17.0001 4.42188 16.4998C4.25229 15.9992 4.52045 15.4558 5.02084 15.2862C5.52142 15.1165 6.06476 15.3848 6.23446 15.8851C6.40415 16.3857 6.13608 16.9291 5.6355 17.0987Z" fill="white"/>
<path d="M14.8726 8.64859C14.8726 9.33348 15.4277 9.88848 16.1125 9.88848C16.7972 9.88848 16.7972 7.40869 16.1125 7.40869C15.4277 7.40869 14.8726 7.9637 14.8726 8.64859Z" fill="white"/>
<path d="M15.0762 16.9703C15.5056 18.2373 16.881 18.9162 18.148 18.4867C19.4151 18.057 20.0938 16.6817 19.6643 15.4147C19.2348 14.1477 17.8595 13.4688 16.5924 13.8985C15.3256 14.3281 14.6466 15.7035 15.0762 16.9703ZM17.6777 17.0988C17.177 17.2686 16.6336 17.0002 16.4639 16.4999C16.2944 15.9993 16.5624 15.4559 17.0629 15.2863C17.5635 15.1166 18.1068 15.3849 18.2765 15.8852C18.4463 16.3858 18.1781 16.9292 17.6777 17.0988Z" fill="white"/>
<path d="M8.96587 13.0292V12.1348C8.96587 11.9553 8.82047 11.8096 8.64071 11.8096H2.01424C1.83467 11.8096 1.68908 11.9554 1.68908 12.1348V13.0292C1.68908 13.2088 1.83467 13.3544 2.01424 13.3544H2.05019C1.69698 14.221 1.15186 15.7234 1.15186 16.7423H2.55374C2.43175 16.1338 2.51225 15.5057 2.79148 14.9401C3.12622 14.2625 3.70434 13.7555 4.41985 13.5131C4.71449 13.413 5.01999 13.3628 5.32846 13.3628C6.54119 13.3628 7.61762 14.1347 8.00728 15.2839C8.17223 15.7706 8.19593 16.2713 8.1016 16.7424H8.67281H10.0144H14.5961C14.5312 16.4186 14.5237 16.0894 14.5731 15.7668H9.38891C8.94068 14.8626 8.7865 13.9395 8.73543 13.3389C8.86858 13.298 8.96587 13.1757 8.96587 13.0292Z" fill="white"/>
<path d="M12.0445 9.85912C11.5375 9.79205 11.0872 9.67748 10.6843 9.53179H8.89977C8.90056 9.19843 8.92831 8.85934 8.97029 8.52569C7.89505 7.57293 7.57997 6.4723 7.55972 6.39793C7.45492 6.01103 7.68437 5.611 8.07116 5.50621C8.13339 5.48932 8.19739 5.48072 8.2614 5.48072C8.58705 5.48072 8.87507 5.7 8.9618 6.0139C8.97049 6.04432 9.05751 6.33313 9.29752 6.70254C9.30365 6.67182 9.30997 6.64041 9.3159 6.61049C9.51838 5.90811 9.25347 5.06746 8.65116 4.91742C8.04864 4.76719 7.17539 5.09442 6.82011 6.12768C6.33987 7.5513 6.23666 8.47788 6.41909 10.0456C6.62078 11.0832 7.2876 11.2704 7.89436 11.2889C7.92932 11.293 7.96459 11.2959 8.00074 11.2959H10.3676L9.6133 14.3614C9.49685 14.8345 9.78605 15.3123 10.2591 15.4287C10.3299 15.4461 10.4007 15.4545 10.4706 15.4545C10.8671 15.4545 11.2274 15.1852 11.3264 14.7829L12.3496 10.6245C12.4144 10.3613 12.3545 10.0829 12.1873 9.86959C12.1856 9.86742 12.1836 9.86554 12.1819 9.86337C12.1682 9.86416 12.1545 9.86534 12.1406 9.86534C12.1086 9.86544 12.0763 9.86337 12.0445 9.85912Z" fill="white"/>
<path d="M12.6996 9.21213C12.7406 8.90307 12.5231 8.61929 12.2141 8.5784C9.45485 8.21314 8.83268 6.15165 8.80552 6.05673C8.72285 5.75755 8.41349 5.58114 8.11381 5.66233C7.81285 5.74392 7.63506 6.05397 7.71655 6.35493C7.74835 6.47207 8.53498 9.2303 12.066 9.69769C12.0912 9.70105 12.1161 9.70263 12.1408 9.70263C12.4195 9.70263 12.6621 9.4961 12.6996 9.21213Z" fill="white"/>
<path d="M10.9512 3.83648L11.5141 4.17952C11.5717 4.06662 11.6183 3.94621 11.6483 3.81722C11.7083 3.55972 11.7009 3.30251 11.6392 3.06299H10.9512V3.83648Z" fill="white"/>
<path d="M9.74267 5.00246C9.96352 5.05392 10.1841 5.0557 10.3935 5.01649L8.60303 3.97266C8.77529 4.47146 9.19073 4.87406 9.74267 5.00246Z" fill="white"/>
<path d="M10.0728 1.3833C8.56405 1.3833 8.27148 1.98374 8.27148 3.60016L11.5199 5.49383L11.7818 4.52398L10.7962 3.92344V2.90736H12.5207C12.5208 2.90736 11.5817 1.3833 10.0728 1.3833Z" fill="white"/>
</g>
<defs>
<clipPath id="clip0_2991_33754">
<rect width="20" height="20" fill="white"/>
</clipPath>
</defs>
</svg>
