<svg width="20" height="20" viewBox="0 0 20 20" fill="none" xmlns="http://www.w3.org/2000/svg">
<path d="M12.4658 8.43019C12.5282 8.52085 12.5668 8.62281 12.5812 8.7288L12.8521 8.62147L14.6417 13.841C14.9519 13.502 15.3439 13.2443 15.7911 13.0926C16.0787 12.9952 16.3775 12.9457 16.6784 12.9457C17.6379 12.9457 18.5099 13.4403 19.0092 14.2246C19.3062 14.2104 19.3822 14.0363 18.9049 13.4144C18.1352 12.4115 17.0644 12.217 16.3114 12.227C16.2642 12.0996 16.2153 11.9665 16.1644 11.8258C15.7029 10.5498 14.6666 9.94215 14.0566 9.68514L13.4686 7.97027C13.4331 7.86696 13.3581 7.78389 13.2591 7.73832C13.1599 7.69255 13.0481 7.68953 12.9466 7.72986L11.9429 8.12747L12.0213 8.14199C12.2032 8.17546 12.3611 8.27782 12.4658 8.43019Z" fill="white"/>
<path d="M2.43532 14.4871C2.7623 13.8252 3.32714 13.3299 4.02619 13.093C4.31405 12.9953 4.61247 12.9461 4.91384 12.9461C5.09128 12.9461 5.26569 12.9633 5.43533 12.9959L5.82091 11.4287H1.67605C1.50056 11.4287 1.35834 11.5711 1.35834 11.7465V12.6203C1.35834 12.7958 1.50056 12.938 1.67605 12.938H1.71113C1.36614 13.7847 0.833496 15.2524 0.833496 16.2478H2.20311C2.08395 15.6534 2.16258 15.0397 2.43532 14.4871Z" fill="white"/>
<path d="M7.15472 14.9496C7.13939 14.9045 7.12252 14.8604 7.10485 14.8168C6.91088 15.0972 6.58921 15.2746 6.23185 15.2746C6.14629 15.2746 6.06053 15.2641 5.97705 15.2436C5.8216 15.2053 5.68052 15.1332 5.55995 15.0348C5.66527 15.1355 5.74894 15.2619 5.79895 15.4094C5.96469 15.8983 5.7027 16.4291 5.21368 16.595C4.72472 16.7609 4.1939 16.4986 4.02809 16.0098C3.86235 15.5207 4.1244 14.9898 4.61329 14.8242C4.92857 14.7173 5.26066 14.789 5.50168 14.9839C5.43285 14.9188 5.37183 14.8447 5.32142 14.7615C5.17436 14.5184 5.13074 14.2327 5.19862 13.9569L5.3401 13.3819C4.9562 13.3112 4.54957 13.3342 4.15357 13.4685C2.91576 13.8881 2.25266 15.2318 2.67239 16.4694C3.09205 17.7072 4.43552 18.3704 5.6734 17.9509C6.91115 17.5311 7.57438 16.1874 7.15472 14.9496Z" fill="white"/>
<path d="M14.2383 8.34017C14.2383 9.00925 14.7806 9.55151 15.4496 9.55151C16.1186 9.55151 16.1186 7.12891 15.4496 7.12891C14.7806 7.12891 14.2383 7.67109 14.2383 8.34017Z" fill="white"/>
<path d="M13.9452 15.2947H8.88061C8.44274 14.4112 8.29205 13.5094 8.24218 12.9227C8.3723 12.8829 8.46733 12.7634 8.46733 12.6203V11.7465C8.46733 11.5711 8.32532 11.4287 8.1497 11.4287H8.01098L7.30029 14.317C7.39257 14.4754 7.4702 14.6444 7.53069 14.8229C7.69186 15.2984 7.71491 15.7876 7.62284 16.2478H8.18082H9.49149H13.9676C13.9043 15.9315 13.8969 15.6098 13.9452 15.2947Z" fill="white"/>
<path d="M15.9188 13.4688C14.681 13.8884 14.0178 15.2321 14.4375 16.4697C14.8571 17.7075 16.2007 18.3707 17.4386 17.9512C18.6764 17.5314 19.3395 16.1878 18.9199 14.95C18.5003 13.7122 17.1566 13.049 15.9188 13.4688ZM16.9789 16.5953C16.4897 16.7612 15.9589 16.499 15.7932 16.0101C15.6276 15.5211 15.8894 14.9901 16.3784 14.8245C16.8675 14.6587 17.3983 14.9208 17.5641 15.4097C17.7299 15.8986 17.4679 16.4295 16.9789 16.5953Z" fill="white"/>
<path d="M7.74386 7.78362C7.86383 7.79699 7.97849 7.81561 8.08764 7.83859L7.1924 6.61725C7.08312 6.46811 7.03842 6.28536 7.06658 6.10255C7.09474 5.91974 7.19233 5.75897 7.34154 5.64962C7.46104 5.56197 7.60238 5.5156 7.75031 5.5156C7.97023 5.5156 8.17918 5.62139 8.3091 5.79862L8.80236 6.4716C8.80478 6.45923 8.80747 6.44619 8.80982 6.43396C9.00762 5.74774 8.74879 4.9265 8.16037 4.77991C7.5718 4.63313 6.71863 4.95278 6.37149 5.96228C6.13061 6.67646 5.98745 7.26287 5.92871 7.87153C6.44993 7.78294 7.11928 7.71378 7.74386 7.78362Z" fill="white"/>
<path d="M9.09995 14.0054C8.98623 14.4675 9.26865 14.9344 9.73086 15.0481C9.80002 15.0651 9.86924 15.0733 9.9374 15.0733C10.3248 15.0733 10.6768 14.8102 10.7735 14.4173L11.7732 10.3547C11.8365 10.0975 11.778 9.82551 11.6146 9.61716C11.5601 9.54753 11.4951 9.48859 11.4238 9.43959L10.5981 9.28702H8.40285C8.40292 9.2641 8.40386 9.24098 8.40419 9.218C8.30425 9.25604 8.19497 9.2719 8.08353 9.2594C8.03763 9.25429 7.99179 9.24448 7.9475 9.23016C7.85555 9.20052 7.74761 9.17828 7.62744 9.16309C7.79802 9.23157 7.95019 9.34294 8.06754 9.49275C8.27051 9.75158 8.34182 10.0833 8.26319 10.4028L8.11364 11.0106H9.83685L9.09995 14.0054Z" fill="white"/>
<path d="M9.27672 4.72799C10.1109 4.92229 10.9445 4.40349 11.1388 3.56928C11.3332 2.73513 10.8144 1.90145 9.98014 1.70728C9.14599 1.51297 8.31218 2.03177 8.11787 2.86585C7.9237 3.70007 8.4425 4.53381 9.27672 4.72799ZM10.2931 3.88826C10.0853 4.13976 9.75646 4.28198 9.4102 4.23399C9.064 4.186 8.78622 3.9597 8.65455 3.66115L10.2931 3.88826Z" fill="white"/>
<path d="M5.39457 14.0048C5.28085 14.467 5.56327 14.9338 6.02548 15.0475C6.09464 15.0646 6.16386 15.0728 6.23201 15.0728C6.61941 15.0728 6.97146 14.8097 7.06811 14.4167L8.0678 10.3541C8.13111 10.097 8.07264 9.82496 7.90925 9.61661C7.74593 9.40819 7.49584 9.28647 7.23103 9.28647H5.89274C5.74272 9.31645 5.6202 9.34528 5.53981 9.36672C5.45607 9.38897 5.37024 9.39542 5.28462 9.38588C5.03379 9.35785 4.81797 9.19567 4.72153 8.96265L3.74274 6.59799C3.59683 6.24527 3.76499 5.83959 4.11771 5.69361C4.22552 5.64898 4.34354 5.63224 4.45887 5.64515C4.70983 5.67317 4.92558 5.83542 5.02216 6.06851L5.60178 7.46897C5.62349 7.14199 5.62665 6.79586 5.61455 6.40973C5.57483 5.34297 4.85091 4.78976 4.24507 4.75972C3.63937 4.72954 3.15371 5.44056 3.14423 6.1546C3.04544 7.13285 2.96498 8.55469 2.46944 9.64296C2.13628 10.5472 2.3863 10.6937 2.98871 10.8843C3.23477 10.9623 3.5073 11.0269 3.77964 11.008C3.79288 11.0086 3.80592 11.01 3.81923 11.01H6.1316L5.39457 14.0048Z" fill="white"/>
<path d="M5.13969 2.44871C5.36162 2.40778 5.57602 2.51444 5.68362 2.69867L5.95999 2.64772C5.99474 2.43722 6.15705 2.26113 6.37898 2.2202C6.38503 2.21905 6.39108 2.21872 6.39713 2.21778C6.19442 1.97192 5.91274 1.7877 5.57871 1.70879C4.7658 1.51684 3.95134 2.02018 3.75946 2.83302C3.74158 2.90883 3.72975 2.98471 3.72363 3.06006L4.72077 2.87617C4.75545 2.66573 4.91776 2.48964 5.13969 2.44871Z" fill="white"/>
<path d="M5.96153 2.82575C5.96052 2.82017 5.96019 2.81466 5.95931 2.80908L5.74283 2.84901C5.74404 2.85452 5.74565 2.85983 5.74673 2.8654C5.79888 3.14829 5.61183 3.41996 5.32895 3.47211C5.04606 3.52427 4.77439 3.33722 4.72224 3.05433C4.72123 3.04875 4.72089 3.04324 4.72002 3.03766L3.71973 3.22209C3.73814 3.8909 4.20196 4.49022 4.88401 4.65125C5.69679 4.84314 6.51138 4.33987 6.70326 3.52702C6.73102 3.40954 6.74379 3.29206 6.74366 3.17639C6.6911 3.20824 6.63229 3.23184 6.56824 3.2436C6.28528 3.29569 6.01368 3.10864 5.96153 2.82575ZM5.6568 4.21176C5.31476 4.28388 4.97683 4.16498 4.75181 3.92867L6.37044 3.58745C6.26008 3.89446 5.99883 4.13965 5.6568 4.21176Z" fill="white"/>
<path d="M6.40193 2.34352C6.18753 2.38304 6.04565 2.58904 6.08524 2.80344C6.12476 3.01791 6.33076 3.15966 6.54516 3.12014C6.75956 3.08062 6.90144 2.87469 6.86186 2.66022C6.82227 2.44582 6.61634 2.304 6.40193 2.34352Z" fill="white"/>
<path d="M5.16268 2.57155C4.94828 2.61107 4.80639 2.81707 4.84598 3.03147C4.88557 3.24594 5.0915 3.38769 5.3059 3.34817C5.5203 3.30865 5.66218 3.10271 5.6226 2.88824C5.58301 2.67384 5.37708 2.53203 5.16268 2.57155Z" fill="white"/>
<path d="M4.87942 6.12811C4.76583 5.85369 4.45129 5.72337 4.17693 5.83689C3.90258 5.95041 3.77219 6.26495 3.88571 6.53931L4.86443 8.9039C4.94132 9.08961 5.11203 9.21146 5.3019 9.23263C5.36676 9.23989 5.43384 9.23539 5.5001 9.21771C5.94363 9.09949 7.25685 8.84489 7.99543 9.08289C8.27845 9.17396 8.58103 9.0187 8.6721 8.73601C8.6803 8.71061 8.68581 8.685 8.69011 8.65939L8.23046 8.03232C7.38986 7.79769 6.30058 7.94945 5.68433 8.07292L4.87942 6.12811Z" fill="white"/>
<path d="M8.8848 8.66408C8.96579 8.77464 9.08596 8.85005 9.22072 8.87491L11.7971 9.35096C11.8302 9.35708 11.863 9.36004 11.8954 9.36004C12.1497 9.36004 12.3757 9.17897 12.4236 8.91994C12.4775 8.62792 12.2846 8.34745 11.9925 8.29354L9.62593 7.85621L8.1838 5.88882C8.00831 5.64935 7.67179 5.5974 7.43225 5.77302C7.19278 5.94857 7.14089 6.28503 7.31645 6.52457L8.8848 8.66408Z" fill="white"/>
</svg>
