<svg width="80" height="81" viewBox="0 0 80 81" fill="none" xmlns="http://www.w3.org/2000/svg">
<g clip-path="url(#clip0_2357_13864)">
<path d="M55.4734 37.2463L54.7167 37.6896C54.89 38.6029 55 39.5396 55 40.5029C55 41.4663 54.89 42.4029 54.7167 43.3163L55.4734 43.7596C57.8567 45.1529 58.66 48.2129 57.2667 50.5996C56.3367 52.1929 54.6634 53.0763 52.9467 53.0763C52.0867 53.0763 51.22 52.8563 50.4267 52.3929L49.6167 51.9196C48.2567 53.0696 46.7067 53.9763 45 54.5829V55.5029C45 58.2663 42.7634 60.5029 40 60.5029C37.2367 60.5029 35 58.2663 35 55.5029V54.5829C33.29 53.9729 31.7434 53.0663 30.3834 51.9196L29.5734 52.3929C28.78 52.8563 27.91 53.0763 27.0567 53.0763C25.3367 53.0763 23.6634 52.1896 22.7367 50.5996C21.3434 48.2163 22.1467 45.1529 24.53 43.7596L25.2867 43.3163C25.1134 42.4029 25.0034 41.4663 25.0034 40.5029C25.0034 39.5396 25.1134 38.6029 25.2867 37.6896L24.53 37.2463C22.1467 35.8529 21.3434 32.7929 22.7367 30.4063C24.1267 28.0196 27.19 27.2163 29.5767 28.6129L30.3867 29.0863C31.7467 27.9363 33.2967 27.0296 35.0034 26.4229V25.5029C35.0034 22.7396 37.24 20.5029 40.0034 20.5029C42.7667 20.5029 45.0034 22.7396 45.0034 25.5029V26.4229C46.7134 27.0329 48.26 27.9396 49.62 29.0863L50.43 28.6129C52.8133 27.2196 55.87 28.0163 57.27 30.4063C58.6633 32.7896 57.8567 35.8529 55.4734 37.2463ZM40 35.4996C37.2434 35.4996 35 37.7429 35 40.4996C35 43.2563 37.2434 45.4996 40 45.4996C42.7567 45.4996 45 43.2563 45 40.4996C45 37.7429 42.7567 35.4996 40 35.4996Z" fill="#006054"/>
<path d="M80 40.5006C80 62.5572 62.0567 80.5006 40 80.5006C31.4833 80.5006 23.26 77.7872 16.4467 72.8172L12.22 77.0439C10.2033 79.0606 6.73667 77.6106 6.72333 74.7472L6.66333 60.3672C6.65667 58.5906 8.09 57.1606 9.86333 57.1672L24.2433 57.2272C27.1067 57.2406 28.5567 60.7072 26.54 62.7239L23.6433 65.6206C28.4833 68.7772 34.1433 70.5006 40 70.5006C56.5433 70.5006 70 57.0406 70 40.5006C70 37.7372 72.24 35.5006 75 35.5006C77.76 35.5006 80 37.7372 80 40.5006ZM10 40.5006C10 23.9606 23.46 10.5006 40 10.5006C45.8967 10.5006 51.5433 12.2006 56.3767 15.3606L53.4567 18.2806C51.44 20.2972 52.89 23.7639 55.7533 23.7772L70.1333 23.8372C71.9067 23.8439 73.34 22.4106 73.3333 20.6372L73.2733 6.25724C73.2633 3.39391 69.7933 1.94391 67.7767 3.96057L63.53 8.20724C56.7267 3.23391 48.57 0.503907 39.9967 0.503907C17.9433 0.500573 0 18.4439 0 40.5006C0 43.2639 2.23667 45.5006 5 45.5006C7.76333 45.5006 10 43.2639 10 40.5006Z" fill="black" fill-opacity="0.2"/>
</g>
<defs>
<clipPath id="clip0_2357_13864">
<rect width="80" height="80" fill="white" transform="translate(0 0.5)"/>
</clipPath>
</defs>
</svg>
